<?xml version="1.0" encoding="UTF-8"?>
<svg width="23px" height="24px" viewBox="0 0 23 24" version="1.1" xmlns="http://www.w3.org/2000/svg" xmlns:xlink="http://www.w3.org/1999/xlink">
    <!-- Generator: Sketch 50.2 (55047) - http://www.bohemiancoding.com/sketch -->
    <title>Page-1</title>
    <desc>Created with Sketch.</desc>
    <defs></defs>
    <g id="Page-1" stroke="none" stroke-width="1" fill="none" fill-rule="evenodd">
        <g id="品牌站详情页" transform="translate(-267.000000, -222.000000)" fill="#666666" fill-rule="nonzero">
            <g id="Page-1" transform="translate(267.000000, 222.000000)">
                <g id="Group-5">
                    <path d="M22.781,23.858 C22.6624361,23.9605975 22.5074915,24.0110169 22.3512544,23.9978402 C22.1950174,23.9846636 22.0507058,23.9090058 21.951,23.788 C21.916,23.745 20.012,21.698 18.787,20.452 C18.0359925,19.6935766 17.2899763,18.9302268 16.549,18.162 C16.299883,17.9045303 16.0551807,17.6428254 15.815,17.377 C15.738905,17.293332 15.6658574,17.2069423 15.596,17.118 C15.5617597,17.0751896 15.5309951,17.0297116 15.504,16.982 C15.474,16.929 15.474,16.929 15.437,16.819 C15.368,16.704 15.469,16.436 15.602,16.219 C17.3161196,14.5644947 18.2811327,12.2823398 18.274,9.9 C18.274,5.095 14.447,1.2 9.726,1.2 C5.006,1.2 1.179,5.095 1.179,9.9 C1.179,14.705 5.006,18.6 9.726,18.6 C9.811,18.6 11.089,18.53 11.786,18.33 C11.844,18.312 11.903,18.296 11.965,18.278 C12.241457,18.1984254 12.5168159,18.1150844 12.791,18.028 C13.102,17.928 13.433,18.103 13.531,18.42 C13.6296306,18.7337498 13.4582055,19.0685852 13.146,19.172 L12.885,19.254 C12.688,19.315 12.483,19.376 12.285,19.434 L12.095,19.487 C11.569,19.632 10.305,19.815 9.726,19.8 C4.175,19.658 0,15.368 0,9.9 C0,4.432 4.354,0 9.726,0 C15.098,0 19.453,4.432 19.453,9.9 C19.4600248,12.4188572 18.5124191,14.8468291 16.801,16.695 C16.95,16.858 17.147,17.067 17.393,17.323 C17.893,17.845 18.403,18.366 19.62,19.603 C20.3714219,20.3623382 21.118103,21.126353 21.86,21.895 C22.183,22.232 22.427,22.492 22.595,22.678 C22.69,22.785 22.762,22.87 22.814,22.938 C22.851,22.986 22.881,23.028 22.906,23.075 C22.936,23.129 22.936,23.129 22.974,23.243 C23.0419982,23.4681819 22.9654681,23.7120473 22.781,23.858" id="Fill-3"></path>
                </g>
            </g>
        </g>
    </g>
</svg>